<svg xmlns="http://www.w3.org/2000/svg" viewBox="0 0 64 64" role="img" aria-label="Favicon Calculadora de Café">
  <defs>
    <linearGradient id="bg" x1="0" y1="0" x2="1" y2="1">
      <stop offset="0%" stop-color="#fff5e8"/>
      <stop offset="100%" stop-color="#e8c59a"/>
    </linearGradient>
    <linearGradient id="cup" x1="0" y1="0" x2="1" y2="1">
      <stop offset="0%" stop-color="#d98732"/>
      <stop offset="100%" stop-color="#b45f13"/>
    </linearGradient>
  </defs>

  <rect x="4" y="4" width="56" height="56" rx="16" fill="url(#bg)"/>
  <rect x="5" y="5" width="54" height="54" rx="15" fill="none" stroke="#fff" stroke-opacity="0.7"/>

  <g fill="none" stroke="url(#cup)" stroke-width="4" stroke-linecap="round" stroke-linejoin="round">
    <path d="M18 29h24v12a8 8 0 0 1-8 8H26a8 8 0 0 1-8-8z"/>
    <path d="M42 32h5a6 6 0 0 1 0 12h-5"/>
    <line x1="24" y1="20" x2="24" y2="26"/>
    <line x1="31" y1="18" x2="31" y2="26"/>
    <line x1="38" y1="20" x2="38" y2="26"/>
  </g>
</svg>
