<?xml version="1.0" encoding="UTF-8"?>
<svg id="Layer_1" xmlns="http://www.w3.org/2000/svg" version="1.1" viewBox="0 0 601.1 178.02">
  <!-- Generator: Adobe Illustrator 30.2.1, SVG Export Plug-In . SVG Version: 2.1.1 Build 1)  -->
  <defs>
    <style>
      .st0 {
        fill: #e45625;
      }
    </style>
  </defs>
  <path class="st0" d="M586.2,32.27v66.69c-.78,1.07-3.25,2.58-4.82,2.58l-18.5-.04c-1.26,0-3.41-2.28-3.41-3.72V33.76c0-1.45,2.26-3.52,3.47-3.52h18.33c1.53,0,4,1.2,4.94,2.03Z"/>
  <path class="st0" d="M466.64,100.7c-7.54,1.04-14.98,1.19-21.83.26l-18.01-26.57-.31,22.83c-.03,1.83-1.73,4.44-3.73,4.38l-20.41-.65V30.73c7.99-.53,14.51-.53,21.82-.18l17.91,28.84.36-25.07c.03-1.89,1.7-4.25,3.75-4.2l20.41.51.05,70.07Z"/>
  <path class="st0" d="M313.98,75.82c-.05,17.85-17.86,25.77-33.23,25.62l-32.94-.34V30.59s33.96-.3,33.96-.3c15.21-.13,32.3,9.48,32.26,26.01l-.05,19.52ZM287.5,74.06l-.11-16.7c-.03-4.41-3.22-7.2-7.68-7.24-1.98-.02-4.84.33-6.24.88l.06,30.21c3.58.22,6.68.22,9.95-.56,1.78-.42,4.02-4.54,4.01-6.59Z"/>
  <path class="st0" d="M375.86,98.02c-11.8,4.79-24.8,4.6-36.31.46-19.12-6.87-17.04-25.45-16.46-42.38.36-10.49,6.66-19.1,16.66-22.88,11.03-4.17,23.68-4.19,34.72,0,10.12,3.84,16.82,12.65,16.77,23.33l-.1,20.07c-.05,9.48-6.01,17.66-15.27,21.41ZM364.42,75.72l.05-19.41c.01-4.06-4.06-6.17-7.38-6.17-2.51,0-6.96,1.84-7.06,5.2-.21,7.21-.22,13.68-.02,20.84.1,3.53,4.46,5.29,7.09,5.27,2.87-.02,7.3-1.55,7.31-5.73Z"/>
  <path class="st0" d="M212.09,92.18l-21.63-.02c-1.46,3.71-2.62,6.47-4.2,9.22-8.36.2-15.02.29-24.25-.51l24.51-70.22c9.95-.46,19-.44,29.32-.11l24.57,70.21c-9.16,1.03-16.17.86-24.59.52l-3.73-9.09ZM206.64,72.12l-5.4-17.98-5.64,18.09,11.04-.11Z"/>
  <path class="st0" d="M523.89,92.21l-21.37-.11-4.22,9.23-19.92.26c-.79.01-3.12-.95-3.46-1.62s-.23-1.93.16-3.02l23.38-66.37,29.36.12,24.47,70.14c-9.29.83-15.86.73-24.39.52l-4.01-9.15ZM518.7,72.17l-5.72-18.03-5.35,17.91,11.07.12Z"/>
  <path class="st0" d="M153.96,89.61c0,40.05-32.63,72.52-72.89,72.52S8.18,129.67,8.18,89.61,40.81,17.09,81.07,17.09s72.89,32.47,72.89,72.52ZM149.91,89.61c0-37.82-30.82-68.49-68.83-68.49S12.24,51.78,12.24,89.61s30.82,68.49,68.83,68.49,68.83-30.66,68.83-68.49Z"/>
  <path class="st0" d="M371.62,141.55l-18.6.04-3.22,7.15c-.26.58-1.28,2-1.8,1.78l-2.51-1.07,14.4-31.38c.35-.75,2.74-1.67,3.24-1.32.67.47,1.78,1.51,2.18,2.39l13.92,30.56c-1.14.9-3.82.54-4.26-.48l-3.33-7.68ZM369.95,138.33l-7.7-17.5-7.7,17.67,15.4-.17Z"/>
  <path class="st0" d="M434.97,134.91l-15.89.27.04,11.99,17.97.1c.83,0,2.69,1.43,2.33,1.86s-1.54,1.35-2.25,1.35l-21.81-.07-.1-33.47h23.13s-.07,3.14-.07,3.14l-19.17.11-.18,11.54,15.61.15,1.67.62c.38.14-.86,2.41-1.26,2.42Z"/>
  <path class="st0" d="M388.44,132.66c6.64,1.96,12.27-2.22,18.65,2.42-6.55,1.96-11.98.9-18.39,1.33l-.28,13.08c-.02.84-3.08.9-3.6.24v-32.68s22.12-.15,22.12-.15c.73,0,.73,3.13.06,3.13l-18.25.15-.32,12.47Z"/>
  <path class="st0" d="M320.21,142.66c9.68,10.81,19.93-.62,22.13,1.97,2.74,3.24-13.77,11.13-24.06,1.42-7.41-6.99-6.95-19.19.92-25.64,10.25-8.39,26.25-1.03,23.07,2.44-.57.62-2.25.37-3.11-.25-5.91-4.26-13.68-3.39-18.58,1.55-4.73,4.77-5.2,13.12-.38,18.5Z"/>
  <path class="st0" d="M434.23,108.56c-2.38,2.47-5.13,4.76-9.4,6.15,1.05-4.17,4.51-7.13,9.4-6.15Z"/>
  <path class="st0" d="M65.49,107.12l-18.3-.1c-1.34,2.7-2.86,5.81-4.31,7.81l-20.29-.63,20.91-59.79c8.69-.37,16.55-.38,25.22.02l20.89,59.75c-7.38.51-13.52.57-20.14.52-1.69-1.1-2.87-4.25-3.98-7.59ZM60.77,89.56l-4.69-14.38-4.62,14.5,9.31-.12Z"/>
  <path class="st0" d="M135.74,102.87c1.03-.79,3.18-.5,3.73.35,2.16,3.32-14.32,11.53-25.76,2.11-8.57-7.06-8.81-19.74-1.27-27.68,12.08-12.72,33.44.28,26.16,1.79-.74.15-2.2-.14-2.98-.69-6.48-4.53-15.07-3.63-20.41,1.92-5.05,5.25-5.51,14.32-.4,20.07s13.9,7.52,20.93,2.13Z"/>
</svg>